<?xml version="1.0" encoding="utf-8"?>
<!-- Generator: Adobe Illustrator 27.5.0, SVG Export Plug-In . SVG Version: 6.00 Build 0)  -->
<svg version="1.1" id="Capa_1" xmlns="http://www.w3.org/2000/svg" xmlns:xlink="http://www.w3.org/1999/xlink" x="0px" y="0px"
	 viewBox="0 0 1934 2328" style="enable-background:new 0 0 1934 2328;" xml:space="preserve">
<path style="fill:#B9D68A;" d="M1065.216,1058.294l1.357-0.166l0.626-0.078l0.587-0.073l0.547-0.069l0.742-0.094
	c1-0.129,1.687-0.224,1.976-0.28c2.391-0.459,4.776-0.927,7.157-1.408c3.361-0.678,6.713-1.378,10.056-2.1
	c1.393-0.3,2.785-0.603,4.174-0.911c2.091-0.464,4.179-0.937,6.263-1.417c2.854-0.657,5.701-1.33,8.542-2.018
	c1.879-0.455,3.755-0.918,5.629-1.387c4.901-1.227,9.782-2.498,14.64-3.815c6.941-1.881,13.837-3.854,20.686-5.916
	c3.426-1.03,6.839-2.083,10.24-3.156c1.99-0.629,3.977-1.266,5.96-1.909c2.534-0.822,5.062-1.655,7.583-2.501
	c1.959-0.658,3.914-1.324,5.865-1.995c1.095-0.377,2.189-0.756,3.282-1.138c0.178,0.513,0.738,0.786,1.253,0.61
	c48.004-16.43,94.955-36.549,138.756-62.464c65.534-38.491,125.014-91.299,160.645-159.38c23.944-44.512,38.91-97.209,26.669-147.54
	c-6.026-24.995-19.627-47.665-36.988-66.273l-1.39-0.054l-0.006,0.006l-0.874-0.925l-0.614-0.639l-0.746-0.767l-1.281-1.291
	c-37.773-37.814-93.357-55.557-138.42-50.937c-107.613,11.035-176.251,106.847-222.175,186.998
	c-27.438,47.89-45.624,102.723-57.861,160.072c-0.474-3.826-0.954-7.651-1.441-11.472c-8.104-62.481-17.789-124.783-29.433-186.699
	c0.384-0.651,0.648-1.107,0.76-1.326c17.65-34.33,32.411-69.466,44.504-104.958c0.515,0.175,1.073-0.096,1.251-0.61
	c16.661-47.925,29.767-97.294,36.367-147.758c10.099-75.328,5.194-154.716-26.442-224.743
	c-20.284-46.294-52.547-90.568-99.721-111.96c-23.395-10.666-49.628-13.934-74.983-11.736c-0.536,0.05-0.942,0.522-0.899,1.061
	l0.002,0.011c-55.022,4.894-105.559,38.577-130.463,78.11c-57.657,91.531-24.539,204.643,10.253,290.214
	c36.224,89.092,106.361,169.066,181.214,239.234c10.917,10.235,22.089,20.409,34.091,29.855
	c7.85,51.603,14.544,103.371,20.137,155.22c0.311,3.097,0.62,6.195,0.928,9.294c-0.576-1.577-1.159-3.15-1.744-4.722
	c-1.138-3.058-2.291-6.108-3.464-9.146c-1.149-2.976-2.314-5.942-3.496-8.897c-1.182-2.956-2.381-5.899-3.597-8.831
	c-1.217-2.932-2.45-5.852-3.701-8.759c-1.252-2.907-2.52-5.802-3.807-8.683c-0.482-1.081-0.968-2.159-1.456-3.235
	c-0.976-2.153-1.961-4.298-2.957-6.435c-0.499-1.069-0.999-2.135-1.502-3.2c-1.343-2.838-2.704-5.663-4.084-8.471
	c-2.07-4.213-4.183-8.39-6.342-12.531c-1.438-2.76-2.897-5.503-4.375-8.229c-2.957-5.452-5.995-10.835-9.117-16.141
	c-3.903-6.633-7.936-13.146-12.108-19.529c-0.834-1.277-1.675-2.548-2.52-3.814c-6.764-10.127-13.884-19.912-21.388-29.305
	l-0.227-0.282c-0.558-0.698-1.118-1.397-1.681-2.097l-0.553-0.689c-0.62-0.77-1.243-1.542-1.868-2.314l-0.383-0.471
	c-0.579-0.712-1.158-1.425-1.741-2.139l-0.4-0.49c-0.671-0.821-1.344-1.643-2.022-2.466l-0.295-0.36
	c-0.711-0.864-1.426-1.728-2.144-2.593l-0.129-0.155c-1.511-1.819-3.036-3.642-4.578-5.466l-0.1-0.118
	c-0.585-0.693-1.175-1.386-1.764-2.08l-0.237-0.277c-56.364-66.168-132.89-133.779-230.076-128.76
	c-46.938,2.425-101.389,30.37-132.455,76.47c-61.763,91.652-2.207,187.055,47.528,240.131c11.391,12.156,23.562,23.411,36.4,33.833
	c8.708,7.07,17.724,13.757,27.01,20.083c9.286,6.326,18.843,12.29,28.636,17.914c6.529,3.749,13.162,7.348,19.89,10.802
	c1.345,0.691,2.694,1.376,4.047,2.055c5.412,2.717,10.883,5.343,16.407,7.88c2.762,1.269,5.538,2.515,8.325,3.739
	c5.577,2.45,11.205,4.812,16.877,7.091c2.836,1.14,5.684,2.258,8.543,3.356c2.858,1.098,5.727,2.176,8.606,3.234
	c4.319,1.586,8.66,3.127,13.022,4.625c1.453,0.499,2.909,0.994,4.368,1.483c4.374,1.468,8.769,2.893,13.18,4.276
	c1.102,0.345,2.207,0.689,3.312,1.029c3.314,1.022,6.638,2.02,9.971,2.995c28.142,8.237,56.883,14.847,85.646,20.181
	c1.161,0.216,2.324,0.429,3.488,0.639c4.655,0.842,9.326,1.644,14.012,2.405c23.43,3.806,47.238,6.594,71.354,8.259
	c1.205,0.083,2.412,0.164,3.619,0.242c4.829,0.31,9.67,0.576,14.523,0.795c2.426,0.11,4.856,0.208,7.287,0.295l0.118,0.003
	l0.149,0.001l0.246-0.001l0.293-0.003l0.968-0.02l0.46-0.012l0.509-0.014l1.143-0.034l0.62-0.019l1.377-0.044l0.362-0.012
	l0.383-0.012l0.741-0.024l0.024-0.001l1.176-0.039l0.861-0.027l0.845-0.027l0.438-0.014c0.718-0.023,1.456-0.047,2.212-0.07
	c0.031,0.635,0.06,1.271,0.091,1.906c-0.095,3.368-0.145,6.746-0.141,10.134l0.004,0.855c0.002,0.57,0.002,1.141,0.008,1.712v-0.001
	l0.066-0.136l0.167-0.125l0.04-0.023l0.288-0.136l0.118-0.047c2.392,56.783,2.477,113.599-1.215,170.303
	c-3.393,57.861-9.787,115.405-18.911,172.494c-0.343-3.326-0.705-6.647-1.087-9.961c-0.226-1.963-0.46-3.923-0.701-5.881
	c-0.261-2.125-0.532-4.247-0.81-6.367l-0.118-0.897c-0.281-2.114-0.568-4.224-0.866-6.331c-0.445-3.143-0.909-6.278-1.393-9.406
	c-0.969-6.255-2.019-12.479-3.156-18.666c-0.568-3.094-1.157-6.178-1.769-9.252c-7.341-36.893-17.867-72.364-32.618-105.275
	c-0.251-0.561-0.505-1.124-0.759-1.687l-0.162-0.362c-0.245-0.544-0.493-1.09-0.74-1.636l-0.271-0.601
	c-0.249-0.546-0.497-1.094-0.747-1.642l-0.121-0.266c-0.485-1.062-0.973-2.126-1.464-3.193l-0.377-0.816l-0.585-1.265
	c-0.242-0.523-0.485-1.046-0.73-1.57l-0.348-0.746c-0.37-0.793-0.742-1.587-1.116-2.381l-0.294-0.624
	c-0.316-0.669-0.633-1.339-0.952-2.01l-0.264-0.557c-0.835-1.758-1.681-3.519-2.537-5.285l-0.001-0.003
	c-0.373-0.769-0.749-1.539-1.124-2.31l-0.102-0.209c-0.336-0.688-0.674-1.377-1.014-2.065l-0.16-0.326
	c-38.027-77.105-94.903-159.347-188.745-178.482c-46.053-9.391-105.761,4.051-147.369,40.917
	c-82.721,73.294-48.915,180.56-14.033,244.387c7.989,14.618,16.959,28.559,26.783,41.861
	c51.607,69.878,126.77,122.116,206.987,162.291l1.324,0.663c0.563,0.281,1.127,0.562,1.69,0.841c1.051,0.522,2.103,1.043,3.155,1.56
	l0.56,0.276c0.798,0.391,1.596,0.782,2.395,1.171l1.432,0.696c0.671,0.326,1.342,0.653,2.014,0.977
	c1.079,0.521,2.159,1.039,3.24,1.556l1.435,0.684c0.832,0.396,1.664,0.791,2.496,1.185l1.226,0.579
	c1.161,0.546,2.321,1.09,3.482,1.632l0.201,0.095c3.213,1.497,6.441,2.975,9.683,4.434c1.08,0.486,2.162,0.97,3.246,1.452
	c2.167,0.963,4.341,1.918,6.52,2.863c1.09,0.473,2.181,0.944,3.275,1.412c2.185,0.937,4.377,1.864,6.575,2.782
	c2.199,0.918,4.402,1.828,6.613,2.727c3.315,1.35,6.644,2.679,9.987,3.987c2.229,0.872,4.463,1.734,6.703,2.587
	c4.481,1.706,8.985,3.373,13.514,5.001c1.132,0.407,2.265,0.811,3.401,1.213c3.404,1.207,6.823,2.391,10.254,3.552
	c1.144,0.387,2.289,0.772,3.436,1.154c3.01,1.003,6.029,1.989,9.059,2.957c5.049,1.613,10.126,3.178,15.23,4.692
	c0.632,0.188,3.228,0.772,6.859,1.586c-30.226,119.868-71.752,237.037-121.969,350.149c0.126-3.02,0.241-6.041,0.345-9.064
	c0.028-0.805,0.055-1.611,0.081-2.416c0.183-5.638,0.324-11.279,0.422-16.918c0.014-0.806,0.026-1.611,0.038-2.417
	c0.037-2.417,0.066-4.833,0.085-7.248c0.014-1.61,0.024-3.221,0.029-4.831c0.003-0.805,0.004-1.609,0.005-2.415
	c0.005-4.828-0.024-9.653-0.091-14.472c-0.033-2.41-0.075-4.818-0.127-7.224c-0.035-1.604-0.074-3.208-0.117-4.811
	c-0.022-0.801-0.044-1.603-0.068-2.404c-0.523-17.622-1.572-35.141-3.254-52.454c-0.152-1.574-0.311-3.146-0.475-4.717
	c-2.287-21.986-5.615-43.623-10.204-64.697c-0.327-1.505-0.662-3.008-1.002-4.508c-0.682-2.999-1.389-5.987-2.123-8.961
	c-0.184-0.743-0.369-1.487-0.555-2.229c-1.309-5.195-2.699-10.351-4.174-15.466c-0.211-0.731-0.424-1.461-0.638-2.189
	c-0.429-1.458-0.864-2.912-1.307-4.363c-2.657-8.706-5.57-17.284-8.755-25.719c-0.325-0.86-0.652-1.723-0.981-2.586l-0.31-0.813
	c-0.683-1.791-1.375-3.589-2.076-5.394l-0.147-0.378c-0.341-0.876-0.684-1.753-1.028-2.632l-0.08-0.203
	c-0.347-0.883-0.696-1.768-1.048-2.653l-0.145-0.367c-33.02-83.226-85.394-178.474-183.909-204.827
	c-45.404-12.145-105.814-2.322-149.565,31.973c-86.982,68.182-59.694,177.288-28.717,243.099
	c7.096,15.072,15.21,29.528,24.215,43.397c43.555,67.079,107.943,120.433,178.485,163.541l0.298,0.182
	c1.16,0.708,2.323,1.415,3.487,2.118l0.545,0.329c1.148,0.693,2.298,1.383,3.45,2.07l0.46,0.275
	c1.303,0.777,2.607,1.551,3.915,2.321l0.263,0.155c1.563,0.921,3.13,1.837,4.699,2.748l0.185,0.108
	c3.194,1.854,6.398,3.687,9.61,5.501l0.951,0.536c1.21,0.681,2.419,1.359,3.63,2.035l1.443,0.803
	c1.088,0.605,2.178,1.207,3.269,1.807l1.442,0.794c1.532,0.84,3.065,1.676,4.599,2.508c6.234,3.376,12.53,6.679,18.887,9.903
	c2.118,1.075,4.245,2.142,6.376,3.199c2.132,1.057,4.27,2.106,6.416,3.147c2.145,1.04,4.297,2.071,6.456,3.094
	c4.317,2.045,8.661,4.054,13.031,6.025c4.37,1.972,8.766,3.908,13.189,5.805c5.527,2.373,11.095,4.685,16.703,6.938
	c3.365,1.351,6.743,2.681,10.136,3.988c4.524,1.743,9.073,3.447,13.648,5.109l0.398,0.132c1.67,0.531,7,2.04,13.336,3.879
	c-9.461,19.433-19.167,38.734-29.109,57.893c-31.546,60.821-67.888,122.825-103.943,181.524c-2.7,4.177-1.596,9.813,2.571,12.632
	c4.213,2.855,9.942,1.754,12.796-2.457c33.303-48.398,68.12-101.872,97.184-152.694c16.805-28.884,32.976-58.181,48.473-87.852
	l0.226,0.122l0.331,0.208l0.212,0.182l0.086,0.154v0.045l0,0c0.164-0.962,0.322-1.925,0.477-2.887l0.184,0.058l0.747,0.237
	l0.727,0.233c0.92,0.296,1.868,0.604,2.835,0.923l0.46,0.152l0.93,0.308l0.938,0.313c0.629,0.21,1.261,0.422,1.897,0.637
	l0.955,0.324l1.437,0.489l0.958,0.327l0.6,0.206l0.833,0.286l0.597,0.206c1.17,0.403,2.327,0.804,3.458,1.197l1.224,0.427
	l1.025,0.358l0.307,0.107l0.566,0.198l0.302,0.106l1.39,0.487l0.366,0.128l0.373,0.131l0.431,0.151l0.362,0.127l0.346,0.121
	l1.109,0.389l0.441,0.155l0.399,0.14l1.35,0.472l0.239,0.084l0.328,0.115l0.229,0.08l0.402,0.14l0.17,0.059l1.081,0.374l0.219,0.076
	l0.23,0.079l0.169,0.057l0.413,0.14l0.191,0.065l0.209,0.07l0.158,0.052l0.203,0.066l0.336,0.105l0.065,0.019l0.041,0.011
	c1.467,0.404,2.933,0.805,4.4,1.2c4.4,1.186,8.804,2.33,13.208,3.433c5.873,1.471,11.749,2.868,17.628,4.195
	c1.175,0.265,2.351,0.528,3.528,0.787c2.351,0.519,4.703,1.026,7.055,1.522c8.232,1.736,16.466,3.333,24.698,4.793
	c3.528,0.626,7.055,1.227,10.582,1.803c7.691,1.256,15.378,2.394,23.059,3.417c2.56,0.341,5.119,0.669,7.678,0.985
	c-0.066,0.539,0.313,1.031,0.852,1.101c50.317,6.524,101.323,9.273,152.07,5.431c75.803-5.495,152.517-26.508,214.609-71.776
	c41.178-29.309,77.929-69.933,89.24-120.481c5.665-25.08,3.507-51.427-3.821-75.8c-0.159-0.515-0.704-0.815-1.223-0.663
	l-0.009,0.004l-0.376-1.222l-0.222-0.707c-0.188-0.591-0.379-1.181-0.573-1.769l-0.136-0.417c-0.236-0.71-0.478-1.417-0.725-2.122
	l-0.219-0.622c-0.199-0.563-0.402-1.125-0.607-1.686l-0.195-0.533c-0.257-0.695-0.519-1.388-0.786-2.079l-0.222-0.57
	c-0.214-0.55-0.431-1.098-0.651-1.645l-0.246-0.611c-0.277-0.681-0.558-1.36-0.844-2.037l-0.208-0.484
	c-0.237-0.557-0.477-1.112-0.721-1.666l-0.276-0.628c-0.296-0.666-0.595-1.33-0.898-1.992l-0.215-0.46
	c-0.251-0.542-0.505-1.083-0.761-1.623l-0.322-0.671c-0.273-0.566-0.547-1.13-0.827-1.692l-0.282-0.568
	c-0.287-0.575-0.579-1.148-0.873-1.72l-0.365-0.705c-0.262-0.504-0.525-1.006-0.792-1.506l-0.266-0.501
	c-0.336-0.625-0.676-1.247-1.018-1.868l-0.401-0.72l-0.757-1.34l-0.372-0.652c-0.349-0.605-0.702-1.209-1.057-1.811l-0.395-0.662
	l-0.783-1.301l-0.438-0.717c-0.362-0.589-0.726-1.174-1.095-1.758l-0.382-0.598l-0.84-1.306l-0.46-0.706
	c-0.383-0.585-0.769-1.167-1.158-1.747l-0.317-0.466l-0.931-1.361l-0.504-0.727l-0.908-1.29l-0.618-0.864l-0.926-1.277l-0.595-0.809
	l-0.802-1.073l-0.516-0.686c-0.398-0.526-0.8-1.048-1.205-1.569l-0.574-0.734l-0.831-1.053l-0.569-0.713
	c-0.404-0.504-0.812-1.005-1.221-1.503l-0.634-0.767l-0.767-0.918l-0.67-0.793l-1.243-1.448l-0.604-0.689l-0.843-0.956l-0.677-0.758
	l-0.871-0.961l-1.09-1.186l-0.755-0.811l-0.763-0.81l-0.769-0.802l-1.229-1.268l-0.736-0.749l-0.833-0.835l-0.696-0.691
	l-1.301-1.272l-0.783-0.755l-0.851-0.807l-0.68-0.64l-0.881-0.82l-0.093-0.085c-0.692-0.638-1.388-1.269-2.088-1.894l-0.633-0.564
	l-0.919-0.809l-0.615-0.533c-0.532-0.462-1.068-0.92-1.604-1.374l-0.646-0.545l-0.953-0.794l-0.544-0.447
	c-0.579-0.475-1.16-0.945-1.742-1.411l-0.601-0.478l-0.955-0.752l-0.665-0.516l-0.849-0.655l0.017,0.017
	c-12.819-9.804-26.516-17.519-40.26-22.637c-101.375-37.754-205.342,17.763-282.007,69.295
	c-63.037,42.371-116.187,104.289-162.056,171.603c46.453-101.747,84.853-207.253,113.638-315.236l1.082-0.28l0.95-0.187l0.54-0.094
	l0.58-0.095c0.6-0.095,1.258-0.189,1.967-0.284l1.098-0.143c0.882-0.111,1.826-0.221,2.82-0.331l0.863-0.094
	c1.603-0.172,3.317-0.342,5.094-0.508l0.975-0.091c0.49-0.045,0.984-0.09,1.481-0.134l0.997-0.089
	c0.667-0.059,1.337-0.117,2.01-0.174c10.751-0.917,21.853-1.653,23.288-1.86c4.816-0.696,9.618-1.437,14.402-2.222
	c2.217-0.364,4.431-0.738,6.641-1.12c2.559-0.443,5.114-0.897,7.662-1.365c9.501-1.744,18.934-3.66,28.293-5.741
	c2.34-0.521,4.676-1.052,7.007-1.592c4.662-1.082,9.305-2.204,13.93-3.367c11.242-2.826,22.373-5.889,33.386-9.176
	c0.156,0.521,0.701,0.819,1.222,0.667c48.709-14.207,96.535-32.148,141.479-56.023c67.233-35.441,129.078-85.458,167.798-151.832
	c25.964-43.365,43.334-95.32,33.419-146.159c-4.871-25.246-17.416-48.516-33.905-67.902l-1.385-0.118l-0.008,0.008l-0.92-1.071
	l-1.042-1.181l-0.429-0.483c-0.445-0.496-0.893-0.989-1.343-1.478c-36.001-39.227-90.48-59.347-135.543-56.811
	c-108.006,6.08-180.974,98.637-230.53,176.593c-19.294,30.351-34.799,63.827-47.372,99.163
	c6.316-49.322,10.513-98.95,12.445-148.776c1.511-49.118,0.663-98.401-1.963-147.597l0.637-0.078L1065.216,1058.294z"/>
<path style="fill:#ABCD6E;" d="M1026.989,1052.031c-0.097,3.252-0.156,6.513-0.156,9.784l0.004,0.855
	c0.001,0.569,0.002,1.139,0.008,1.71v0.002l0.066-0.136l0.167-0.125l0.04-0.023l0.406-0.183
	C1027.356,1059.953,1027.178,1055.992,1026.989,1052.031z"/>
<path style="fill:#ABCD6E;" d="M1449.328,574.213c0.873,0.899,1.788,1.752,2.642,2.674c75.074,81.109,30.836,184.51-10.182,244.578
	c-9.394,13.758-19.698,26.744-30.788,39.01c-64.193,71.001-154.728,117.87-247.715,150.466
	c-32.432,11.368-66.012,20.789-100.573,27.917c0.411,6.532,0.79,13.067,1.139,19.603l0.637-0.078l0.729-0.089l1.357-0.166
	l0.626-0.078l0.587-0.073l0.547-0.069l0.742-0.094c1-0.129,1.687-0.224,1.976-0.28c2.391-0.459,4.776-0.927,7.157-1.408
	c3.361-0.678,6.713-1.378,10.056-2.1c1.393-0.3,2.785-0.603,4.174-0.911c2.091-0.464,4.179-0.937,6.263-1.417
	c2.854-0.657,5.701-1.33,8.542-2.018c1.879-0.455,3.755-0.918,5.629-1.387c4.901-1.227,9.782-2.498,14.64-3.815
	c6.941-1.882,13.837-3.854,20.686-5.916c3.426-1.03,6.839-2.083,10.24-3.156c1.99-0.629,3.977-1.266,5.96-1.909
	c2.534-0.822,5.062-1.655,7.583-2.501c1.959-0.658,3.914-1.324,5.865-1.995c1.095-0.377,2.189-0.756,3.282-1.138l-0.002-0.005
	c-0.175-0.51,0.095-1.066,0.601-1.249c117.387-42.062,236.041-108.373,296.743-221.756c23.802-43.735,38.805-95.519,27.045-145.038
	c-5.557-24.549-18.584-47.009-35.502-65.657l0.054-1.388l-0.874-0.925l-0.614-0.639l-0.746-0.767
	C1462.062,584.547,1455.847,579.153,1449.328,574.213z"/>
<path style="fill:#254247;" d="M899.119,85.985c25.112-1.823,50.826,1.767,73.582,12.527c46.237,21.271,77.76,65.01,97.519,110.714
	c51.844,117.697,30.901,251.999-8.355,370.354c-0.168,0.511,0.103,1.066,0.612,1.243l0.005,0.001
	c0.515,0.175,1.073-0.096,1.251-0.61c16.661-47.925,29.767-97.294,36.367-147.758c10.099-75.328,5.194-154.716-26.442-224.743
	c-20.284-46.294-52.547-90.568-99.721-111.96c-23.395-10.666-49.628-13.934-74.983-11.736c-0.536,0.05-0.942,0.522-0.899,1.061
	l0.002,0.011C898.109,85.627,898.58,86.027,899.119,85.985z"/>
<path style="fill:#ABCD6E;" d="M1421.908,1760.846c31.402,105.966-54.047,179.091-117.422,214.788
	c-14.513,8.176-29.502,15.258-44.877,21.346c-88.995,35.239-190.925,37.178-288.733,25.231
	c-37.534-4.584-75.272-11.898-112.805-22.255c-0.777-0.214-4.35-1.475-9.124-3.148c-1.881,3.652-3.772,7.299-5.674,10.94
	l0.226,0.122l0.331,0.208l0.298,0.336v0.045c0.164-0.963,0.322-1.925,0.477-2.887l0,0l0.184,0.058l0.747,0.237l0.727,0.233
	c0.92,0.296,1.868,0.604,2.835,0.923l0.46,0.152l0.93,0.308l0.938,0.313c0.629,0.21,1.261,0.422,1.897,0.637l0.955,0.324
	l1.437,0.489l0.958,0.327l0.6,0.206l0.833,0.286l0.597,0.206c1.17,0.403,2.327,0.804,3.458,1.197l1.224,0.427l1.025,0.358
	l0.307,0.107l0.566,0.198l0.302,0.106l1.39,0.487l0.366,0.128l0.373,0.131l0.431,0.151l0.362,0.127l0.346,0.121l1.109,0.389
	l0.441,0.155l0.399,0.14l1.35,0.472l0.239,0.084l0.328,0.115l0.229,0.08l0.402,0.14l0.17,0.059l1.081,0.374l0.219,0.076l0.23,0.079
	l0.169,0.057c0.706,0.241,1.221,0.412,1.509,0.498l0.065,0.019l0.041,0.011c11.73,3.237,23.479,6.176,35.236,8.828
	c1.175,0.265,2.351,0.528,3.528,0.787c2.352,0.519,4.703,1.026,7.055,1.522c8.232,1.736,16.466,3.333,24.698,4.793
	c3.528,0.626,7.055,1.227,10.582,1.803c10.255,1.675,20.503,3.139,30.737,4.401v-0.004c0.068-0.535,0.557-0.914,1.091-0.854
	c123.878,14.261,259.626,7.341,364.258-67.444c40.706-28.675,77.088-68.464,88.468-118.071c5.887-24.473,4.151-50.379-2.761-74.589
	c-0.152-0.52,0.145-1.064,0.662-1.221l-0.376-1.222l-0.222-0.707c-0.188-0.591-0.379-1.181-0.573-1.769l-0.136-0.417
	c-0.236-0.71-0.478-1.417-0.725-2.122l-0.219-0.622c-0.199-0.563-0.402-1.125-0.607-1.686l-0.195-0.533
	c-0.257-0.695-0.519-1.388-0.786-2.079l-0.222-0.57c-0.214-0.55-0.431-1.098-0.651-1.645l-0.246-0.611
	c-0.277-0.681-0.558-1.36-0.844-2.037l-0.208-0.484c-0.237-0.557-0.477-1.112-0.721-1.666l-0.276-0.628
	c-0.296-0.666-0.595-1.33-0.898-1.992l-0.215-0.46c-0.251-0.542-0.505-1.083-0.761-1.623l-0.322-0.671
	c-0.273-0.566-0.547-1.13-0.827-1.692l-0.282-0.568c-0.287-0.575-0.579-1.148-0.873-1.72l-0.365-0.705
	c-0.262-0.504-0.525-1.006-0.792-1.506l-0.266-0.501c-0.336-0.625-0.676-1.247-1.018-1.868l-0.401-0.72l-0.757-1.34l-0.372-0.652
	c-0.349-0.605-0.702-1.209-1.057-1.811l-0.395-0.662l-0.783-1.301l-0.438-0.717c-0.362-0.589-0.726-1.174-1.095-1.758l-0.382-0.598
	l-0.84-1.306l-0.46-0.706c-0.383-0.585-0.769-1.167-1.158-1.747l-0.317-0.466l-0.931-1.361l-0.504-0.727l-0.908-1.29l-0.618-0.864
	l-0.926-1.277l-0.595-0.809l-0.802-1.073l-0.516-0.686c-0.398-0.526-0.8-1.048-1.205-1.569l-0.574-0.734l-0.831-1.053l-0.569-0.713
	c-0.404-0.504-0.812-1.005-1.221-1.503l-0.634-0.767l-0.767-0.918l-0.67-0.793l-1.243-1.448l-0.604-0.689l-0.843-0.956l-0.677-0.758
	l-0.871-0.961l-1.09-1.186l-0.755-0.811l-0.763-0.81l-0.769-0.802l-1.229-1.268l-0.736-0.749l-0.833-0.835l-0.696-0.691
	l-1.301-1.272l-0.783-0.755l-0.851-0.807l-0.68-0.64l-0.881-0.82l-0.093-0.085c-0.692-0.638-1.388-1.269-2.088-1.894l-0.633-0.564
	l-0.919-0.809l-0.615-0.533c-0.532-0.462-1.068-0.92-1.604-1.374l-0.646-0.545l-0.953-0.794l-0.544-0.447
	c-0.579-0.475-1.16-0.945-1.742-1.411l-0.601-0.478l-0.955-0.752l-0.665-0.516l-0.849-0.655
	C1397.386,1707.383,1413.552,1732.646,1421.908,1760.846z"/>
<path style="fill:#ABCD6E;" d="M1162.582,1560.234c119.195-36.625,240.769-97.415,306.617-207.89
	c25.787-42.595,43.152-93.635,33.68-143.642c-4.425-24.779-16.406-47.813-32.448-67.218l0.115-1.383l-0.92-1.071l-1.042-1.181
	l-0.429-0.483c-7.01-7.812-14.776-14.849-23.027-21.166c2.513,2.597,4.951,5.272,7.292,8.045
	c71.269,84.473,22.327,185.732-21.407,243.852c-10.016,13.312-20.906,25.811-32.548,37.554
	c-67.386,67.977-159.979,110.638-254.366,138.927c-36.221,10.856-73.724,19.293-112.26,24.862
	c-1.286,0.186-10.324,0.796-19.924,1.581c-1.651,6.469-3.334,12.932-5.054,19.384l1.082-0.28l0.95-0.187l0.54-0.094l0.58-0.095
	c0.6-0.095,1.258-0.189,1.967-0.284l1.098-0.143c0.882-0.111,1.826-0.221,2.82-0.331l0.863-0.094
	c1.603-0.172,3.317-0.342,5.094-0.508l0.975-0.091c0.49-0.045,0.984-0.09,1.481-0.134l0.997-0.089
	c0.667-0.059,1.337-0.117,2.01-0.174c10.751-0.917,21.853-1.653,23.288-1.86c4.816-0.696,9.618-1.437,14.402-2.222
	c2.217-0.364,4.431-0.738,6.641-1.12c2.559-0.443,5.114-0.897,7.662-1.365c9.501-1.744,18.934-3.66,28.293-5.741
	c2.34-0.521,4.676-1.052,7.007-1.592c4.662-1.082,9.305-2.204,13.93-3.367c11.242-2.826,22.373-5.889,33.386-9.176l-0.002-0.004
	C1161.773,1560.935,1162.068,1560.392,1162.582,1560.234z"/>
<path style="fill:#ABCD6E;" d="M703.729,1478.737c46.596,45.726,76.142,109.702,97.289,165.696
	c33.981,89.972,36.885,196.304,29.667,298.649c-0.464,6.579-0.973,13.184-1.6,19.804c0.785,0.671,1.573,1.34,2.363,2.007
	c6.885-14.706,13.628-29.484,20.22-44.334c0.127-3.021,0.242-6.042,0.346-9.065c0.028-0.805,0.055-1.611,0.081-2.416
	c0.183-5.638,0.324-11.279,0.422-16.918c0.014-0.806,0.026-1.611,0.038-2.417c0.037-2.417,0.066-4.833,0.085-7.248
	c0.014-1.61,0.024-3.221,0.029-4.831c0.003-0.805,0.004-1.609,0.005-2.415c0.005-4.828-0.024-9.653-0.091-14.472
	c-0.033-2.41-0.075-4.818-0.127-7.224c-0.035-1.604-0.074-3.208-0.117-4.811c-0.022-0.801-0.044-1.603-0.068-2.404
	c-0.523-17.622-1.572-35.141-3.254-52.454c-0.152-1.574-0.311-3.146-0.475-4.717c-2.287-21.986-5.615-43.623-10.204-64.697
	c-0.327-1.505-0.662-3.008-1.002-4.508c-0.682-2.999-1.389-5.987-2.123-8.961c-0.184-0.743-0.369-1.487-0.555-2.229
	c-1.309-5.195-2.699-10.351-4.174-15.466c-0.211-0.731-0.424-1.461-0.638-2.189c-0.429-1.458-0.864-2.912-1.307-4.363
	c-2.657-8.706-5.57-17.284-8.755-25.719c-0.325-0.86-0.652-1.723-0.981-2.586l-0.31-0.813c-0.684-1.791-1.375-3.589-2.076-5.394
	l-0.147-0.378c-0.341-0.876-0.684-1.753-1.028-2.632l-0.08-0.203C791.501,1588.773,757.767,1521.677,703.729,1478.737z"/>
<path style="fill:#ABCD6E;" d="M815.302,1998.702c1.526-3.134,3.046-6.272,4.559-9.413c-11.032-3.876-34.975-10.443-37.059-11.2
	c-36.596-13.301-71.592-29.202-104.843-47.209c-46.235-25.04-91.084-54.031-130.831-87.779
	c35.786,33.265,76.679,62.147,119.504,87.385l0.263,0.155c1.563,0.921,3.13,1.837,4.699,2.748l0.185,0.108
	c3.194,1.854,6.398,3.687,9.61,5.501l0.951,0.536c1.21,0.681,2.419,1.359,3.63,2.035l1.443,0.803
	c1.088,0.605,2.178,1.207,3.269,1.807l1.442,0.794c1.532,0.84,3.065,1.676,4.599,2.508c6.234,3.376,12.53,6.679,18.887,9.903
	c2.118,1.075,4.245,2.142,6.376,3.199c2.132,1.057,4.27,2.106,6.416,3.147c2.145,1.04,4.297,2.071,6.456,3.094
	c4.317,2.045,8.661,4.054,13.031,6.025c4.37,1.972,8.766,3.908,13.189,5.805c5.527,2.373,11.095,4.685,16.703,6.938
	c3.365,1.351,6.743,2.681,10.136,3.988c4.524,1.743,9.074,3.447,13.648,5.109C802.544,1995.045,808.312,1996.673,815.302,1998.702z"
	/>
<path style="fill:#ABCD6E;" d="M850.017,1068.638c43.305,42.143,73.48,98.975,96.096,149.436
	c35.255,78.664,46.38,171.95,47.556,264.324c5.099-25.131,9.682-50.363,13.729-75.686c-0.343-3.326-0.705-6.647-1.087-9.961
	c-0.226-1.963-0.46-3.923-0.701-5.881c-0.559-4.545-1.156-9.078-1.794-13.595c-0.445-3.143-0.909-6.278-1.393-9.406
	c-0.969-6.255-2.019-12.479-3.156-18.666c-0.568-3.094-1.157-6.178-1.769-9.252c-7.341-36.893-17.867-72.364-32.618-105.275
	c-0.251-0.561-0.505-1.124-0.759-1.687l-0.162-0.362c-0.245-0.544-0.493-1.09-0.74-1.636l-0.271-0.601
	c-0.249-0.546-0.497-1.094-0.747-1.642l-0.121-0.266c-0.485-1.062-0.973-2.126-1.464-3.193l-0.377-0.816l-0.585-1.265
	c-0.242-0.523-0.485-1.046-0.73-1.57l-0.348-0.746c-0.37-0.793-0.742-1.587-1.116-2.381l-0.294-0.624
	c-0.316-0.669-0.633-1.339-0.952-2.01l-0.264-0.557c-0.835-1.758-1.681-3.519-2.537-5.285l-0.001-0.003
	C928.777,1159.197,896.052,1105.489,850.017,1068.638z"/>
<path style="fill:#ABCD6E;" d="M973.638,1570.408c0.975-3.868,1.939-7.739,2.891-11.613c-11.888-2.9-26.869-6.085-28.518-6.574
	c-37.328-11.074-73.219-24.839-107.493-40.813c-56.887-26.512-112.176-58.723-159.545-98.488
	c46.302,42.977,101.856,77.723,159.83,106.24l0.56,0.276c0.798,0.391,1.596,0.782,2.395,1.171l1.432,0.696
	c0.671,0.326,1.342,0.653,2.014,0.977c1.079,0.521,2.159,1.039,3.24,1.556l1.435,0.684c0.832,0.396,1.664,0.791,2.496,1.185
	l1.226,0.579c1.161,0.546,2.321,1.09,3.482,1.632l0.202,0.095c3.213,1.497,6.44,2.975,9.682,4.434
	c1.08,0.486,2.162,0.97,3.246,1.452c2.167,0.963,4.341,1.918,6.52,2.863c1.09,0.473,2.181,0.944,3.275,1.412
	c2.185,0.937,4.377,1.864,6.575,2.782c2.199,0.918,4.402,1.828,6.613,2.727c3.315,1.35,6.644,2.679,9.987,3.987
	c2.229,0.872,4.463,1.734,6.703,2.587c4.481,1.706,8.985,3.373,13.514,5.001c4.528,1.627,9.08,3.217,13.655,4.765
	c1.144,0.387,2.289,0.772,3.436,1.154c8.026,2.675,16.123,5.226,24.289,7.649C967.41,1569.01,970.007,1569.595,973.638,1570.408z"/>
<path style="fill:#ABCD6E;" d="M845.309,639.502c24.155,22.584,45.652,47.417,64.482,70.986
	c52.224,65.368,85.884,149.757,109.981,236.175c-1.712-19.9-3.585-39.784-5.555-59.645c-1.698-4.645-3.432-9.27-5.208-13.87
	c-1.149-2.976-2.314-5.942-3.496-8.897c-1.182-2.956-2.381-5.899-3.597-8.831c-1.217-2.932-2.45-5.852-3.701-8.759
	c-1.252-2.907-2.52-5.802-3.807-8.683c-1.931-4.321-3.902-8.613-5.915-12.87c-1.343-2.838-2.704-5.662-4.084-8.471
	c-2.07-4.213-4.183-8.39-6.342-12.531c-1.438-2.76-2.897-5.503-4.375-8.229c-2.957-5.452-5.995-10.835-9.117-16.141
	c-3.903-6.633-7.936-13.146-12.108-19.529c-0.834-1.277-1.675-2.548-2.52-3.814c-6.764-10.127-13.884-19.912-21.388-29.305
	l-0.227-0.282c-0.558-0.698-1.118-1.397-1.681-2.097l-0.553-0.689c-0.62-0.77-1.243-1.542-1.868-2.314l-0.383-0.471
	c-0.579-0.712-1.158-1.425-1.741-2.139l-0.4-0.49c-0.671-0.821-1.344-1.643-2.022-2.466l-0.295-0.36
	c-0.711-0.864-1.426-1.728-2.144-2.593l-0.129-0.155c-1.511-1.819-3.036-3.642-4.578-5.466l-0.1-0.118
	C892.606,683.989,870.236,660.239,845.309,639.502z"/>
<path style="fill:#ABCD6E;" d="M1025.988,1032.759c-12.452,0.125-29.006,0.849-30.796,0.784
	c-38.913-1.388-77.106-5.74-114.284-12.635c-96.884-17.966-193.529-50.414-267.842-110.743c-0.839-0.682-1.616-1.438-2.45-2.127
	c6.864,6.495,13.898,12.786,21.216,18.727c17.417,14.139,36.06,26.748,55.647,37.997c6.529,3.749,13.162,7.348,19.89,10.802
	c1.345,0.691,2.694,1.376,4.047,2.055c5.412,2.717,10.883,5.343,16.407,7.88c2.762,1.269,5.538,2.515,8.325,3.739
	c5.577,2.45,11.205,4.812,16.877,7.091c2.836,1.14,5.684,2.258,8.543,3.356c2.858,1.098,5.727,2.176,8.606,3.234
	c4.319,1.586,8.66,3.127,13.022,4.625c1.453,0.499,2.909,0.994,4.368,1.483c4.374,1.468,8.769,2.893,13.18,4.276
	c4.411,1.383,8.839,2.724,13.283,4.025c28.142,8.237,56.883,14.847,85.646,20.181c1.161,0.216,2.324,0.429,3.488,0.639
	c4.655,0.842,9.326,1.644,14.012,2.405c23.43,3.806,47.238,6.594,71.354,8.259c1.205,0.083,2.412,0.164,3.619,0.242
	c4.829,0.31,9.67,0.576,14.523,0.795c2.426,0.11,4.856,0.208,7.288,0.295l0.266,0.004l0.246-0.001l0.293-0.003l0.968-0.02
	l0.46-0.012l0.509-0.014l1.143-0.034l0.62-0.019l1.377-0.044l0.362-0.012l0.383-0.012l0.741-0.024l0.024-0.001l1.176-0.039
	l0.861-0.027l0.845-0.027l0.438-0.014c0.717-0.023,1.456-0.047,2.212-0.07C1026.606,1044.102,1026.307,1038.431,1025.988,1032.759z"
	/>
<path style="fill:#254247;" d="M1011.915,1571.021c3.482-13.64,6.808-27.318,9.977-41.031
	c129.262-52.001,242.385-166.383,313.969-283.902c4.11-7.152-6.052-13.649-10.934-7.331c-22.473,27.205-45.929,53.99-69.886,79.923
	c-68.059,73.427-143.009,141.003-228.961,192.77c11.402-51.764,20.551-104.015,27.288-156.617
	c6.316-49.322,10.513-98.95,12.445-148.776c1.511-49.118,0.663-98.401-1.963-147.597c-0.349-6.536-0.728-13.07-1.139-19.603
	c-0.872-13.874-1.878-27.738-3.008-41.588c121.004-53.127,213.51-175.186,257.746-296.68c2.611-7.823-8.652-12.189-12.177-5.001
	c-16.09,29.634-33.983,58.774-52.849,86.771c-52.077,77.081-115.413,147.401-194.217,197.376
	c-2.812-31.601-6.234-63.108-10.113-94.455c-0.474-3.826-0.954-7.651-1.441-11.472c-8.104-62.481-17.789-124.783-29.433-186.699
	c-18.092-96.207-40.915-191.483-69.894-285.048c-1.442-4.655-6.304-7.435-11.081-6.219c-4.976,1.253-7.96,6.376-6.629,11.32
	c26.382,103.924,47.402,209.283,63.537,315.34c7.85,51.603,14.544,103.371,20.137,155.22c0.311,3.097,0.62,6.195,0.928,9.294v0.002
	c1.97,19.86,3.842,39.745,5.555,59.645c1.062,12.333,2.063,24.672,2.985,37.016C903.39,913.64,796.929,824.22,694.801,731.305
	c-5.984-5.643-14.648,2.579-9.732,8.864c22.922,28.817,48.082,55.263,74.4,80.705c77.405,73.629,164.783,140.014,264.529,180.075
	c0.729,10.6,1.395,21.204,1.99,31.81c0.319,5.671,0.618,11.343,0.895,17.016c0.031,0.635,0.06,1.271,0.091,1.906l0.016,0.35
	c0.189,3.961,0.367,7.922,0.534,11.883v0.001c2.392,56.783,2.477,113.599-1.215,170.303c-3.393,57.861-9.787,115.405-18.911,172.494
	v0.001c-4.047,25.323-8.63,50.555-13.729,75.686c-1.164,5.738-2.356,11.471-3.573,17.199
	c-104.453-88.56-184.522-201.961-256.843-317.473c-4.195-7.115-14.824-1.582-11.8,5.837c14.557,34.742,32.359,67.535,51.806,99.528
	c55.13,88.887,123.855,173.473,212.957,229.937c-3.077,13.823-6.306,27.614-9.686,41.37c-0.951,3.874-1.916,7.744-2.891,11.613
	l-0.001,0c-30.226,119.868-71.752,237.037-121.969,350.149l-0.001,0.001c-6.591,14.849-13.334,29.628-20.22,44.334
	c-0.79-0.667-1.577-1.336-2.363-2.007c-108.639-92.828-175.183-225.07-230.774-354.655c-3-7.731-14.395-3.943-12.582,3.871
	c9.116,37.457,22.197,73.319,37.371,108.506c44.411,99.994,107.22,199.447,201.67,258.432c-1.63,3.42-3.265,6.837-4.908,10.249
	c-1.513,3.141-3.033,6.279-4.559,9.413c-9.461,19.433-19.167,38.734-29.109,57.893c-31.546,60.821-67.888,122.825-103.943,181.524
	c-2.7,4.177-1.596,9.813,2.571,12.632c4.213,2.855,9.942,1.754,12.796-2.457c33.303-48.398,68.12-101.872,97.184-152.694
	c16.805-28.884,32.976-58.181,48.473-87.852c1.902-3.641,3.793-7.288,5.674-10.94c1.759-3.415,3.512-6.835,5.253-10.26
	c75.538-7.611,149.748-25.609,221.272-50.945c72.986-26.568,143.897-59.275,207.284-104.844c6.713-4.999-0.278-15.014-7.217-11.01
	c-58.669,30.531-120.524,56.908-182.43,80.466c-71.146,26.271-144.526,48.708-218.172,66.679c-4.142,1.016-8.282,2.057-12.422,3.118
	c10.589-21.279,20.831-42.74,30.707-64.372c46.453-101.747,84.853-207.253,113.638-315.236
	C1008.581,1583.953,1010.265,1577.49,1011.915,1571.021z"/>
<path style="fill:#254247;" d="M1439.728,1777.727c6.912,24.211,8.649,50.116,2.761,74.589
	c-11.38,49.607-47.762,89.396-88.468,118.071c-104.632,74.785-240.379,81.705-364.258,67.444c-0.534-0.06-1.023,0.319-1.091,0.854
	v0.004v0c-0.066,0.539,0.313,1.031,0.852,1.101c50.317,6.524,101.323,9.273,152.07,5.431
	c75.803-5.495,152.517-26.508,214.609-71.776c41.178-29.309,77.929-69.933,89.24-120.481c5.665-25.08,3.507-51.427-3.821-75.8
	c-0.159-0.515-0.704-0.815-1.223-0.663l-0.009,0.004C1439.872,1776.663,1439.576,1777.207,1439.728,1777.727z"/>
<path style="fill:#254247;" d="M1471.94,1140.21l-1.385-0.118l-0.008,0.008l-0.115,1.383c16.043,19.405,28.024,42.439,32.448,67.218
	c9.471,50.007-7.893,101.048-33.68,143.642c-65.848,110.475-187.422,171.265-306.617,207.89c-0.514,0.159-0.809,0.702-0.657,1.22
	l0.002,0.004c0.156,0.521,0.701,0.819,1.222,0.667c48.709-14.207,96.535-32.148,141.479-56.023
	c67.233-35.441,129.078-85.458,167.798-151.832c25.964-43.365,43.334-95.32,33.419-146.159
	C1500.973,1182.866,1488.429,1159.596,1471.94,1140.21z"/>
<path style="fill:#254247;" d="M1470.011,594.158c16.918,18.648,29.944,41.108,35.502,65.657
	c11.76,49.519-3.243,101.304-27.045,145.038c-60.702,113.383-179.356,179.694-296.743,221.756c-0.506,0.182-0.775,0.739-0.601,1.249
	l0.002,0.005c0.178,0.513,0.738,0.786,1.253,0.61c48.004-16.43,94.955-36.549,138.756-62.464
	c65.534-38.491,125.014-91.299,160.645-159.38c23.944-44.512,38.91-97.209,26.669-147.54c-6.026-24.995-19.627-47.665-36.988-66.273
	l-1.39-0.054l-0.006,0.006L1470.011,594.158z"/>
<path style="fill:#D4E4AD;" d="M812.243,164.34c-10.936,4.614-21.45,14.863-29.313,27.303c-8.892,14.068-14.395,30.938-13.285,45.63
	c0.896,11.846,8.728,19.506,18.78,20.211c9.386,0.659,18.857-4.737,26.21-12.299c13.799-14.19,27.385-39.58,24.933-60.306
	C837.799,169.917,825.964,158.551,812.243,164.34z"/>
<path style="fill:#D4E4AD;" d="M788.577,277.83c-7.484-4.441-19.611-3.032-25.558,5.253c-4.741,6.603-6.813,14.99-6.32,22.937
	c0.557,8.987,4.393,17.412,11.358,22.058c5.615,3.747,13.699,2.862,20.172-1.472c6.043-4.048,9.55-10.257,10.831-16.261
	C801.463,299.078,798.944,283.982,788.577,277.83z"/>
<path style="fill:#D4E4AD;" d="M864.641,109.094c-7.933,1.77-15.063,6.648-19.987,12.905c-5.569,7.076-8.315,15.916-6.213,24.02
	c1.694,6.535,8.314,11.257,16.03,12.333c7.205,1.005,13.955-1.294,18.909-4.92c9.295-6.806,17.468-19.746,13.828-31.239
	C884.579,113.896,874.594,106.873,864.641,109.094z"/>
<path style="fill:#D4E4AD;" d="M647.204,858.017c4.833-8.073,4.306-18.96,0.888-28.939c-6.411-18.726-22.907-42.328-42.5-49.52
	c-14.143-5.191-29.634,0.222-30.679,15.076c-0.833,11.841,3.55,25.854,11.086,38.494c8.523,14.295,21.079,26.835,34.683,32.491
	C631.652,870.182,642.027,866.663,647.204,858.017z"/>
<path style="fill:#D4E4AD;" d="M676.134,908.268c8.267,3.57,17.516,3.96,24.81-0.149c5.882-3.313,8.752-10.922,7.813-18.656
	c-0.875-7.221-4.826-13.157-9.601-17.016c-8.961-7.24-23.563-11.825-33.74-5.362c-7.346,4.666-11.576,16.118-6.879,25.17
	C662.282,899.47,668.824,905.112,676.134,908.268z"/>
<path style="fill:#D4E4AD;" d="M588.678,754.268c4.155-5.97,5.159-13.03,4.166-19.088c-1.865-11.369-9.707-24.512-21.603-26.466
	c-8.587-1.411-19.368,4.318-21.891,14.199c-2.011,7.876-0.887,16.441,2.467,23.663c3.791,8.168,10.432,14.617,18.61,16.408
	C577.021,764.429,584.227,760.662,588.678,754.268z"/>
<path style="fill:#D4E4AD;" d="M672.863,1286.459c-3.499-19.482-16.225-45.312-34.501-55.391
	c-13.192-7.276-29.325-4.274-32.61,10.25c-2.619,11.577-0.412,26.093,5.121,39.73c6.256,15.422,16.765,29.72,29.355,37.375
	c10.151,6.172,20.939,4.267,27.367-3.494C673.597,1307.682,674.727,1296.841,672.863,1286.459z"/>
<path style="fill:#D4E4AD;" d="M688.573,1368.987c7.63,4.781,16.713,6.569,24.546,3.614c6.316-2.383,10.306-9.469,10.552-17.255
	c0.23-7.27-2.776-13.737-6.91-18.275c-7.76-8.516-21.497-15.261-32.536-10.417c-7.969,3.498-13.886,14.176-10.616,23.835
	C676.214,1358.189,681.826,1364.759,688.573,1368.987z"/>
<path style="fill:#D4E4AD;" d="M625.479,1203.505c5.012-5.271,7.076-12.097,7.013-18.235c-0.119-11.52-5.878-25.7-17.34-29.436
	c-8.274-2.696-19.8,1.331-23.792,10.715c-3.181,7.48-3.369,16.117-1.151,23.764c2.509,8.648,8.095,16.03,15.908,19.04
	C612.417,1211.78,620.111,1209.151,625.479,1203.505z"/>
<path style="fill:#D4E4AD;" d="M513.905,1680.529c0.437-19.789-6.911-47.631-22.823-61.136
	c-11.487-9.749-27.894-10.008-33.996,3.576c-4.864,10.828-5.581,25.492-2.864,39.956c3.071,16.356,10.534,32.456,21.355,42.456
	c8.725,8.064,19.677,8.337,27.516,2.005C510.414,1701.475,513.672,1691.074,513.905,1680.529z"/>
<path style="fill:#D4E4AD;" d="M546.886,1738.845c-5.914-9.886-18.041-19.223-29.822-16.666
	c-8.504,1.847-16.423,11.139-15.135,21.255c1.027,8.064,5.223,15.616,10.997,21.099c6.53,6.2,15.077,9.754,23.34,8.413
	c6.664-1.082,11.98-7.235,13.767-14.818C551.701,1751.047,550.038,1744.113,546.886,1738.845z"/>
<path style="fill:#D4E4AD;" d="M463.787,1591.711c5.691,3.629,13.756,2.578,20.137-1.89c5.958-4.172,9.335-10.453,10.491-16.482
	c2.169-11.314-0.662-26.355-11.154-32.29c-7.575-4.285-19.669-2.625-25.444,5.781c-4.603,6.7-6.501,15.128-5.843,23.063
	C452.718,1578.867,456.727,1587.21,463.787,1591.711z"/>
</svg>
